# xmcd CD database file
#
# Track frame offsets:
#	151
#	13208
#	30582
#	41897
#	70611
#	82499
#	151446
#	203954
#	234097
#	269818
#
# Disc length: 4228 seconds
#
# Revision: 0
# Processed by: cddbd v1.5.2PL0 Copyright (c) Steve Scherf et al.
# Submitted via: CDex 1.51
#
DISCID=8c10820a
DTITLE=Art Ensemble of Chicago - GO HOME and CHI CONGO
DYEAR=1970
DGENRE=Jazz
TTITLE0=HELLO CHI
TTITLE1=FROM BENGALI
TTITLE2=FROM ST LOUIS
TTITLE3=FLY WITH NONEY HEE
TTITLE4=HELLO CHI
TTITLE5=DANCE
TTITLE6=CHI-CONGO
TTITLE7=ENLORFE PT1
TTITLE8=ENLORFE PT2
TTITLE9=HIPPARIPPP
EXTD=YEAR: 1970
EXTT0=
EXTT1=
EXTT2=
EXTT3=
EXTT4=
EXTT5=
EXTT6=
EXTT7=
EXTT8=
EXTT9=
PLAYORDER=
